<?xml version="1.0" encoding="UTF-8"?>
<svg width="150px" height="38px" viewBox="0 0 150 38" version="1.1" xmlns="http://www.w3.org/2000/svg" xmlns:xlink="http://www.w3.org/1999/xlink">
    <!-- Generator: Sketch 64 (93537) - https://sketch.com -->
    <title>RU_Google_Podcasts_Badge</title>
    <desc>Created with Sketch.</desc>
    <g id="RU_Google_Podcasts_Badge" stroke="none" stroke-width="1" fill="none" fill-rule="evenodd">
        <g id="Rectangle-Solid" fill="#FFFFFF" stroke="#9AA0A6" stroke-width="0.56">
            <rect id="Rectangle" x="0.28" y="0.28" width="149.44" height="37.44" rx="8.96"></rect>
        </g>
        <g id="Podcast_icon_final" transform="translate(6.000000, 6.000000)">
            <g id="logo_podcasts_192px">
                <rect id="Rectangle-path" x="0" y="0" width="27" height="27"></rect>
                <path d="M2.671875,11.109375 C1.816875,11.109375 1.125,11.80125 1.125,12.65625 L1.125,14.34375 C1.125,15.19875 1.816875,15.890625 2.671875,15.890625 C3.526875,15.890625 4.21875,15.19875 4.21875,14.34375 L4.21875,12.65625 C4.21875,11.80125 3.526875,11.109375 2.671875,11.109375 Z" id="Shape" fill="#0066D9" fill-rule="nonzero"></path>
                <path d="M24.328125,11.109375 C23.473125,11.109375 22.78125,11.80125 22.78125,12.65625 L22.78125,14.34375 C22.78125,15.19875 23.473125,15.890625 24.328125,15.890625 C25.183125,15.890625 25.875,15.19875 25.875,14.34375 L25.875,12.65625 C25.875,11.80125 25.183125,11.109375 24.328125,11.109375 Z" id="Shape" fill="#4285F4" fill-rule="nonzero"></path>
                <path d="M8.015625,16.171875 C7.160625,16.171875 6.46875,16.86375 6.46875,17.71875 L6.46875,19.40625 C6.46875,20.26125 7.160625,20.953125 8.015625,20.953125 C8.870625,20.953125 9.5625,20.26125 9.5625,19.40625 L9.5625,17.71875 C9.5625,16.86375 8.870625,16.171875 8.015625,16.171875 Z" id="Shape" fill="#EA4335" fill-rule="nonzero"></path>
                <path d="M8.015625,6.046875 C7.160625,6.046875 6.46875,6.73875 6.46875,7.59375 L6.46875,13.1132812 L6.47015625,13.1132812 C6.48984375,13.9514062 7.17328125,14.625 8.015625,14.625 C8.85796875,14.625 9.54140625,13.9514062 9.56109375,13.1132812 L9.5625,13.1132812 L9.5625,7.59375 C9.5625,6.73875 8.870625,6.046875 8.015625,6.046875 Z" id="Shape" fill="#EA4335" fill-rule="nonzero"></path>
                <path d="M18.984375,6.046875 C18.129375,6.046875 17.4375,6.73875 17.4375,7.59375 L17.4375,9.28125 C17.4375,10.13625 18.129375,10.828125 18.984375,10.828125 C19.839375,10.828125 20.53125,10.13625 20.53125,9.28125 L20.53125,7.59375 C20.53125,6.73875 19.839375,6.046875 18.984375,6.046875 Z" id="Shape" fill="#34A853" fill-rule="nonzero"></path>
                <path d="M13.5,1.125 C12.645,1.125 11.953125,1.816875 11.953125,2.671875 L11.953125,4.359375 C11.953125,5.214375 12.645,5.90625 13.5,5.90625 C14.355,5.90625 15.046875,5.214375 15.046875,4.359375 L15.046875,2.671875 C15.046875,1.816875 14.355,1.125 13.5,1.125 Z" id="Shape" fill="#FAB908" fill-rule="nonzero"></path>
                <path d="M13.5,21.09375 C12.645,21.09375 11.953125,21.785625 11.953125,22.640625 L11.953125,24.328125 C11.953125,25.183125 12.645,25.875 13.5,25.875 C14.355,25.875 15.046875,25.183125 15.046875,24.328125 L15.046875,22.640625 C15.046875,21.785625 14.355,21.09375 13.5,21.09375 Z" id="Shape" fill="#FAB908" fill-rule="nonzero"></path>
                <path d="M18.984375,12.375 C18.129375,12.375 17.4375,13.066875 17.4375,13.921875 L17.4375,19.40625 C17.4375,20.26125 18.129375,20.953125 18.984375,20.953125 C19.839375,20.953125 20.53125,20.26125 20.53125,19.40625 L20.53125,13.921875 C20.53125,13.066875 19.839375,12.375 18.984375,12.375 Z" id="Shape" fill="#34A853" fill-rule="nonzero"></path>
                <path d="M15.046875,9 C15.046875,8.145 14.355,7.453125 13.5,7.453125 C12.645,7.453125 11.953125,8.145 11.953125,9 L11.953125,9 L11.953125,12.7504687 L11.953125,14.2509375 L11.953125,18 L11.953125,18 C11.953125,18.855 12.645,19.546875 13.5,19.546875 C14.355,19.546875 15.046875,18.855 15.046875,18 L15.046875,18 L15.046875,14.2495313 L15.046875,12.7504687 L15.046875,9 L15.046875,9 Z" id="Shape" fill="#FAB908" fill-rule="nonzero"></path>
            </g>
        </g>
        <g id="Group" transform="translate(46.000000, 16.500000)">
            <polygon id="Rectangle-path" points="0 1.89267894 86.1168916 1.89267894 86.1168916 15.1414315 0 15.1414315"></polygon>
            <path d="M42.5379591,11.9731697 L42.5379591,4.46160021 L46.6308773,4.46160021 L46.6308773,11.9731697 L47.6245337,11.9731697 L47.6245337,3.5034315 L41.5443026,3.5034315 L41.5443026,11.9731697 L42.5379591,11.9731697 Z M51.9303783,12.1624376 C52.5218405,12.1624376 53.0541564,12.0204867 53.5273261,11.7365849 C54.0004959,11.452683 54.369174,11.0662611 54.6333604,10.577319 C54.8975468,10.088377 55.02964,9.54817485 55.02964,8.95671268 C55.02964,8.36525051 54.8975468,7.8250484 54.6333604,7.33610634 C54.369174,6.84716428 54.0004959,6.46074233 53.5273261,6.17684049 C53.0541564,5.89293865 52.5218405,5.75098773 51.9303783,5.75098773 C51.3389161,5.75098773 50.8066002,5.89293865 50.3334304,6.17684049 C49.8602607,6.46074233 49.4915826,6.84716428 49.2273962,7.33610634 C48.9632098,7.8250484 48.8311165,8.36525051 48.8311165,8.95671268 C48.8311165,9.54817485 48.9632098,10.088377 49.2273962,10.577319 C49.4915826,11.0662611 49.8602607,11.452683 50.3334304,11.7365849 C50.8066002,12.0204867 51.3389161,12.1624376 51.9303783,12.1624376 Z M51.9303783,11.2515859 C51.5597287,11.2515859 51.2127375,11.1589235 50.8894049,10.9735987 C50.5660722,10.7882739 50.3078004,10.5221159 50.1145894,10.1751247 C49.9213785,9.82813361 49.824773,9.42199625 49.824773,8.95671268 C49.824773,8.49142911 49.9213785,8.08529175 50.1145894,7.73830062 C50.3078004,7.39130948 50.5660722,7.1251515 50.8894049,6.93982669 C51.2127375,6.75450188 51.5597287,6.66183947 51.9303783,6.66183947 C52.3010279,6.66183947 52.6460475,6.75450188 52.9654371,6.93982669 C53.2848267,7.1251515 53.5411269,7.39130948 53.7343379,7.73830062 C53.9275489,8.08529175 54.0241544,8.49142911 54.0241544,8.95671268 C54.0241544,9.42199625 53.9275489,9.82813361 53.7343379,10.1751247 C53.5411269,10.5221159 53.2848267,10.7882739 52.9654371,10.9735987 C52.6460475,11.1589235 52.3010279,11.2515859 51.9303783,11.2515859 Z M56.390003,13.7712147 L56.390003,11.9731697 L61.4292607,11.9731697 L61.4292607,13.7712147 L62.3874294,13.7712147 L62.3874294,11.062318 L61.4884069,11.062318 L61.4884069,5.94025563 L56.7330511,5.94025563 L56.7330511,8.27061657 C56.7330511,8.8699649 56.6679902,9.43579704 56.5378686,9.96811299 C56.4077469,10.5004289 56.2480521,10.8651639 56.0587842,11.062318 L56.0587842,11.062318 L55.4318343,11.062318 L55.4318343,13.7712147 L56.390003,13.7712147 Z M60.4947505,11.062318 L57.1115869,11.062318 C57.3008548,10.7074407 57.4487203,10.2953887 57.5551835,9.82616207 C57.6616467,9.35693541 57.7148783,8.86602181 57.7148783,8.35342127 L57.7148783,8.35342127 L57.7148783,6.85110736 L60.4947505,6.85110736 L60.4947505,11.062318 Z M64.3510838,11.9731697 L64.3510838,8.93305419 L64.3984008,8.93305419 L67.0954682,11.9731697 L68.3257096,11.9731697 L68.3257096,11.9258528 L65.4866912,8.80293252 L68.2074171,5.9875726 L68.2074171,5.94025563 L66.9416881,5.94025563 L64.3984008,8.67281084 L64.3510838,8.67281084 L64.3510838,5.94025563 L63.3455981,5.94025563 L63.3455981,11.9731697 L64.3510838,11.9731697 Z M70.7625337,12.1624376 C71.1962726,12.1624376 71.5866376,12.0599175 71.9336288,11.8548773 C72.2806199,11.6498371 72.5408633,11.401423 72.7143588,11.109635 L72.7143588,11.109635 L72.7616758,11.109635 L72.7616758,11.9731697 L73.7198445,11.9731697 L73.7198445,8.15232413 C73.7198445,7.41102488 73.4852312,6.82547734 73.0160045,6.3956815 C72.5467779,5.96588565 71.9020841,5.75098773 71.0819232,5.75098773 C70.5772089,5.75098773 70.1178399,5.85350784 69.7038164,6.05854806 C69.2897929,6.26358828 68.9644887,6.54749012 68.7279038,6.91025358 L68.7279038,6.91025358 L69.4849754,7.47805726 C69.6505848,7.21781391 69.8753404,7.01474523 70.1592423,6.86885123 C70.4431441,6.72295723 70.7546475,6.65001023 71.0937525,6.65001023 C71.5748084,6.65001023 71.9730596,6.78604653 72.2885061,7.05811912 C72.6039526,7.33019172 72.7616758,7.69098364 72.7616758,8.14049489 L72.7616758,8.14049489 L72.7616758,8.50720143 C72.5960664,8.40468132 72.35751,8.31399046 72.0460066,8.23512884 C71.7345032,8.15626721 71.3973697,8.1168364 71.0346063,8.1168364 C70.3011932,8.1168364 69.6939587,8.29624659 69.2129028,8.65506697 C68.7318469,9.01388736 68.491319,9.51268712 68.491319,10.1514663 C68.491319,10.5378882 68.5859529,10.8829078 68.7752208,11.1865251 C68.9644887,11.4901423 69.2326182,11.7286987 69.5796093,11.9021943 C69.9266005,12.0756898 70.3209086,12.1624376 70.7625337,12.1624376 Z M70.8571676,11.2752444 C70.4707457,11.2752444 70.1513561,11.1727243 69.8989989,10.967684 C69.6466417,10.7626438 69.5204631,10.4945143 69.5204631,10.1632955 C69.5204631,9.80053204 69.6604425,9.50480096 69.9404013,9.27610225 C70.22036,9.04740355 70.6363551,8.93305419 71.1883864,8.93305419 C71.4959468,8.93305419 71.7877348,8.972485 72.0637504,9.05134663 C72.3397661,9.13020825 72.5724079,9.23272836 72.7616758,9.35890695 C72.7616758,9.70589809 72.674928,10.0252877 72.5014324,10.3170757 C72.3279369,10.6088637 72.0952951,10.8415055 71.8035071,11.015001 C71.5117191,11.1884966 71.1962726,11.2752444 70.8571676,11.2752444 Z M77.6234948,12.1624376 C78.2701601,12.1624376 78.8202199,12.0086575 79.2736743,11.7010971 C79.7271286,11.3935368 80.0563759,10.9913425 80.2614161,10.4945143 L80.2614161,10.4945143 L79.3623936,10.1159785 C79.2125565,10.478742 78.9838578,10.7587008 78.6762975,10.9558548 C78.3687371,11.1530089 78.0020306,11.2515859 77.5761778,11.2515859 C77.2213005,11.2515859 76.8900817,11.1549804 76.5825214,10.9617694 C76.2749611,10.7685585 76.0285185,10.4984574 75.8431937,10.1514663 C75.6578689,9.80447512 75.5652065,9.40622393 75.5652065,8.95671268 C75.5652065,8.50720143 75.6578689,8.10895024 75.8431937,7.7619591 C76.0285185,7.41496796 76.2749611,7.14486691 76.5825214,6.95165593 C76.8900817,6.75844496 77.2213005,6.66183947 77.5761778,6.66183947 C77.9941444,6.66183947 78.3509933,6.75844496 78.6467244,6.95165593 C78.9424554,7.14486691 79.1652395,7.42679721 79.3150766,7.79744683 L79.3150766,7.79744683 L80.2259283,7.41891104 C80.0366605,6.91419666 79.7192424,6.51003085 79.2736743,6.2064136 C78.8281061,5.90279636 78.2780463,5.75098773 77.6234948,5.75098773 C77.0399188,5.75098773 76.515489,5.88899557 76.0502054,6.16501125 C75.5849219,6.44102693 75.2221584,6.8235058 74.9619151,7.31244785 C74.7016717,7.80138991 74.57155,8.34947819 74.57155,8.95671268 C74.57155,9.56394717 74.7016717,10.1100639 74.9619151,10.5950629 C75.2221584,11.0800619 75.5849219,11.4625407 76.0502054,11.7424995 C76.515489,12.0224582 77.0399188,12.1624376 77.6234948,12.1624376 Z M83.7273844,11.9731697 L83.7273844,6.85110736 L85.702868,6.85110736 L85.702868,5.94025563 L80.7700735,5.94025563 L80.7700735,6.85110736 L82.7337279,6.85110736 L82.7337279,11.9731697 L83.7273844,11.9731697 Z M88.5300572,12.1624376 C88.9637961,12.1624376 89.3541611,12.0599175 89.7011523,11.8548773 C90.0481434,11.6498371 90.3083867,11.401423 90.4818823,11.109635 L90.4818823,11.109635 L90.5291993,11.109635 L90.5291993,11.9731697 L91.487368,11.9731697 L91.487368,8.15232413 C91.487368,7.41102488 91.2527547,6.82547734 90.783528,6.3956815 C90.3143014,5.96588565 89.6696076,5.75098773 88.8494467,5.75098773 C88.3447324,5.75098773 87.8853634,5.85350784 87.4713399,6.05854806 C87.0573164,6.26358828 86.7320122,6.54749012 86.4954273,6.91025358 L86.4954273,6.91025358 L87.2524989,7.47805726 C87.4181083,7.21781391 87.6428639,7.01474523 87.9267658,6.86885123 C88.2106676,6.72295723 88.522171,6.65001023 88.861276,6.65001023 C89.3423319,6.65001023 89.7405831,6.78604653 90.0560296,7.05811912 C90.371476,7.33019172 90.5291993,7.69098364 90.5291993,8.14049489 L90.5291993,8.14049489 L90.5291993,8.50720143 C90.3635899,8.40468132 90.1250335,8.31399046 89.8135301,8.23512884 C89.5020267,8.15626721 89.1648932,8.1168364 88.8021298,8.1168364 C88.0687167,8.1168364 87.4614822,8.29624659 86.9804263,8.65506697 C86.4993704,9.01388736 86.2588424,9.51268712 86.2588424,10.1514663 C86.2588424,10.5378882 86.3534764,10.8829078 86.5427443,11.1865251 C86.7320122,11.4901423 87.0001417,11.7286987 87.3471328,11.9021943 C87.694124,12.0756898 88.0884321,12.1624376 88.5300572,12.1624376 Z M88.6246911,11.2752444 C88.2382692,11.2752444 87.9188796,11.1727243 87.6665224,10.967684 C87.4141652,10.7626438 87.2879866,10.4945143 87.2879866,10.1632955 C87.2879866,9.80053204 87.427966,9.50480096 87.7079248,9.27610225 C87.9878835,9.04740355 88.4038786,8.93305419 88.9559099,8.93305419 C89.2634703,8.93305419 89.5552583,8.972485 89.8312739,9.05134663 C90.1072896,9.13020825 90.3399314,9.23272836 90.5291993,9.35890695 C90.5291993,9.70589809 90.4424515,10.0252877 90.2689559,10.3170757 C90.0954604,10.6088637 89.8628186,10.8415055 89.5710306,11.015001 C89.2792426,11.1884966 88.9637961,11.2752444 88.6246911,11.2752444 Z M93.238096,11.9731697 L94.7758976,9.65463804 L96.349187,11.9731697 L97.5202821,11.9731697 L95.3673598,8.90939571 L97.4729651,5.94025563 L96.30187,5.94025563 L94.7995561,8.17598262 L93.238096,5.94025563 L92.1024886,5.94025563 L94.1962647,8.90939571 L92.0670009,11.9731697 L93.238096,11.9731697 Z" id="Подкастах" fill="#3C4043" fill-rule="nonzero"></path>
            <path d="M26.7183176,5.75689843 C27.46356,5.75689843 28.0523934,6.08811724 28.3560107,6.45613815 L28.4020133,6.45613815 L28.4020133,5.9501094 L29.7084875,5.9501094 L29.7084875,11.5348266 C29.7084875,13.8349573 28.3560107,14.7734106 26.7551197,14.7734106 C25.246234,14.7734106 24.3353823,13.7613531 23.994963,12.9333061 L25.1818304,12.4364778 C25.3934424,12.9425066 25.9086717,13.5405406 26.7459192,13.5405406 C27.7671772,13.5405406 28.4020133,12.9057045 28.4020133,11.7188371 L28.4020133,11.2680115 L28.3560107,11.2680115 C28.0523934,11.6452329 27.46356,11.9764517 26.7183176,11.9764517 C25.1634293,11.9764517 23.7373483,10.6147744 23.7373483,8.87587559 C23.7373483,7.11857577 25.1634293,5.75689843 26.7183176,5.75689843 Z M13.239552,5.84890366 C14.9600498,5.84890366 16.3585292,7.15537787 16.3585292,8.9586803 C16.3585292,10.7527822 14.9600498,12.0684569 13.239552,12.0684569 C11.5190543,12.0684569 10.1205749,10.7527822 10.1205749,8.9586803 C10.1205749,7.15537787 11.5190543,5.84890366 13.239552,5.84890366 Z M20.0479388,5.84890366 C21.7684365,5.84890366 23.1669159,7.15537787 23.1669159,8.9586803 C23.1669159,10.7527822 21.7684365,12.0684569 20.0479388,12.0684569 C18.327441,12.0684569 16.9289616,10.7527822 16.9289616,8.9586803 C16.9289616,7.15537787 18.327441,5.84890366 20.0479388,5.84890366 Z M35.596822,5.84890366 C37.2069134,5.84890366 37.9981584,7.1277763 38.255773,7.82701602 L38.3937808,8.17663587 L34.2351446,9.8971336 C34.5571629,10.5135686 35.0447906,10.8355869 35.7440303,10.8355869 C36.44327,10.8355869 36.9216972,10.4951676 37.2805176,9.9799383 L38.3385777,10.6883785 C37.9889578,11.1944073 37.1701113,12.0684569 35.7440303,12.0684569 C33.97753,12.0684569 32.6618552,10.6975791 32.6618552,8.9586803 C32.6618552,7.10937525 33.995931,5.84890366 35.596822,5.84890366 Z M5.17989423,2.35270507 C6.65197784,2.35270507 7.70083742,2.93233799 8.49208236,3.68678084 L7.55362906,4.61603363 C6.99239718,4.08240332 6.2287538,3.6683798 5.17989423,3.6683798 C3.23858396,3.6683798 1.72049773,5.23246864 1.72049773,7.17377891 C1.72049773,9.11508918 3.23858396,10.679178 5.17989423,10.679178 C6.44036582,10.679178 7.15800659,10.1731493 7.61803272,9.71312315 C7.99525414,9.33590172 8.24366825,8.79307089 8.33567348,8.05702908 L5.17989423,8.05702908 L5.17989423,6.74135435 L9.62374664,6.74135435 C9.66974926,6.98056794 9.69735082,7.25658361 9.69735082,7.56940138 C9.69735082,8.56305782 9.43053567,9.78672733 8.55648602,10.6515765 C7.70083742,11.5348266 6.61517575,12.0040533 5.17989423,12.0040533 C2.51174267,12.0040533 0.276015678,9.84193047 0.276015678,7.18297943 C0.276015678,4.51482788 2.51174267,2.35270507 5.17989423,2.35270507 Z M31.9994176,2.72072597 L31.9994176,11.8568449 L30.6377403,11.8568449 L30.6377403,2.72072597 L31.9994176,2.72072597 Z M13.239552,7.06337264 C12.2918982,7.06337264 11.4822522,7.82701602 11.4822522,8.94947977 C11.4822522,10.062743 12.3010987,10.8355869 13.239552,10.8355869 C14.1780053,10.8355869 14.9968518,10.062743 14.9968518,8.94947977 C14.9968518,7.82701602 14.1780053,7.06337264 13.239552,7.06337264 Z M20.0479388,7.06337264 C19.1002849,7.06337264 18.2906389,7.82701602 18.2906389,8.94947977 C18.2906389,10.062743 19.1094854,10.8355869 20.0479388,10.8355869 C20.9863921,10.8355869 21.8052386,10.062743 21.8052386,8.94947977 C21.8052386,7.82701602 20.9955926,7.06337264 20.0479388,7.06337264 Z M26.8379244,6.98056794 C25.8994711,6.98056794 25.1082262,7.7810134 25.1082262,8.87587559 C25.1082262,9.96153726 25.8994711,10.7527822 26.8379244,10.7527822 C27.7671772,10.7527822 28.503219,9.97073778 28.4940185,8.87587559 C28.4940185,7.7810134 27.7671772,6.98056794 26.8379244,6.98056794 Z M35.6428246,7.04497159 C34.9435849,7.04497159 33.97753,7.66140661 34.0143321,8.85747455 L36.7928899,7.70740922 C36.6456815,7.31178675 36.1856554,7.04497159 35.6428246,7.04497159 Z" id="Combined-Shape" fill="#3C4043" fill-rule="nonzero"></path>
        </g>
        <path d="M42.38625,14.7984375 C43.1671875,14.7984375 43.7930859,14.5925391 44.2639453,14.1807422 C44.7348047,13.7689453 45.0145313,13.1840625 45.103125,12.4260937 L45.103125,12.4260937 L44.1532031,12.4260937 C44.0613281,13.0167187 43.8751172,13.4309766 43.5945703,13.6688672 C43.3140234,13.9067578 42.91125,14.0257031 42.38625,14.0257031 C41.8021875,14.0257031 41.3477344,13.7960156 41.0228906,13.3366406 C40.6980469,12.8772656 40.535625,12.25875 40.535625,11.4810937 L40.535625,11.4810937 L40.535625,10.7871094 C40.535625,9.96351562 40.7070703,9.32859375 41.0499609,8.88234375 C41.3928516,8.43609375 41.8661719,8.21296875 42.4699219,8.21296875 C42.9621094,8.21296875 43.3451953,8.3409375 43.6191797,8.596875 C43.8931641,8.8528125 44.0711719,9.26625 44.1532031,9.8371875 L44.1532031,9.8371875 L45.103125,9.8371875 C45.0276562,9.08578125 44.7602344,8.49761719 44.3008594,8.07269531 C43.8414844,7.64777344 43.2311719,7.4353125 42.4699219,7.4353125 C41.8957031,7.4353125 41.3903906,7.57066406 40.9539844,7.84136719 C40.5175781,8.11207031 40.1804297,8.50007812 39.9425391,9.00539063 C39.7046484,9.51070312 39.5857031,10.0964063 39.5857031,10.7625 L39.5857031,10.7625 L39.5857031,11.4515625 C39.5857031,12.46875 39.8408203,13.2808594 40.3510547,13.8878906 C40.8612891,14.4949219 41.5396875,14.7984375 42.38625,14.7984375 Z M46.3936406,14.7 C46.9317656,14.6835938 47.3246953,14.4785156 47.5724297,14.0847656 C47.8201641,13.6910156 47.9735625,13.0364062 48.032625,12.1209375 L48.032625,12.1209375 L48.1409062,10.1275781 L49.9521562,10.1275781 L49.9521562,14.7 L50.867625,14.7 L50.867625,9.37453125 L47.2697344,9.37453125 L47.1712969,11.6533594 C47.1352031,12.4867969 47.0531719,13.0577344 46.9252031,13.3661719 C46.7972344,13.6746094 46.5855937,13.8452344 46.2902812,13.8780469 L46.2902812,13.8780469 L46.0294219,13.8977344 L46.0294219,14.7 L46.3936406,14.7 Z M52.8176719,16.8508594 C53.5395469,16.8508594 54.0661875,16.4078906 54.3975937,15.5219531 L54.3975937,15.5219531 L56.5386094,9.37453125 L55.5640781,9.37453125 L54.3237656,13.3661719 L52.9948594,9.37453125 L52.0006406,9.37453125 L53.9004844,14.6409375 L53.6986875,15.1823438 C53.587125,15.51375 53.4452109,15.7417969 53.2729453,15.8664844 C53.1006797,15.9911719 52.8603281,16.0535156 52.5518906,16.0535156 L52.5518906,16.0535156 L52.3057969,16.0338281 L52.3057969,16.7721094 L52.6454062,16.8360938 L52.8176719,16.8508594 Z M64.3161562,14.7 L64.3161562,9.37453125 L63.4006875,9.37453125 L63.4006875,13.9567969 L61.4565469,13.9567969 L61.4565469,9.37453125 L60.546,9.37453125 L60.546,13.9567969 L58.5969375,13.9567969 L58.5969375,9.37453125 L57.6814687,9.37453125 L57.6814687,14.7 L64.3161562,14.7 Z M67.64925,14.7984375 C68.2365937,14.7984375 68.7419062,14.5785938 69.1651875,14.1389063 C69.198,14.4079688 69.2406562,14.595 69.2931562,14.7 L69.2931562,14.7 L70.248,14.7 L70.248,14.62125 C70.1233125,14.3325 70.0609687,13.9436719 70.0609687,13.4547656 L70.0609687,13.4547656 L70.0609687,11.0036719 C70.0478437,10.4655469 69.867375,10.0430859 69.5195625,9.73628906 C69.17175,9.42949219 68.6910468,9.27609375 68.0774531,9.27609375 C67.6902656,9.27609375 67.3350703,9.34828125 67.0118672,9.49265625 C66.688664,9.63703125 66.4327265,9.83308594 66.2440547,10.0808203 C66.0553828,10.3285547 65.9610468,10.5853125 65.9610468,10.8510938 L65.9610468,10.8510938 L66.8765156,10.8510938 C66.8765156,10.618125 66.9864375,10.4196094 67.2062812,10.2555469 C67.426125,10.0914844 67.6984687,10.0094531 68.0233125,10.0094531 C68.3940937,10.0094531 68.6746406,10.1037891 68.8649531,10.2924609 C69.0552656,10.4811328 69.1504218,10.7346094 69.1504218,11.0528906 L69.1504218,11.0528906 L69.1504218,11.47125 L68.2644843,11.47125 C67.4999531,11.47125 66.9068672,11.6246484 66.4852265,11.9314453 C66.0635859,12.2382422 65.8527656,12.6689063 65.8527656,13.2234375 C65.8527656,13.6795313 66.0209297,14.0560547 66.3572578,14.3530078 C66.6935859,14.6499609 67.12425,14.7984375 67.64925,14.7984375 Z M67.7821406,14.0060156 C67.4835468,14.0060156 67.2390937,13.925625 67.0487812,13.7648438 C66.8584687,13.6040625 66.7633125,13.3809375 66.7633125,13.0954688 C66.7633125,12.4425 67.321125,12.1160156 68.43675,12.1160156 L68.43675,12.1160156 L69.1504218,12.1160156 L69.1504218,13.2086719 C69.0355781,13.4449219 68.8501875,13.636875 68.59425,13.7845313 C68.3383125,13.9321875 68.0676093,14.0060156 67.7821406,14.0060156 Z M73.9108593,14.7 L73.9108593,10.1128125 L75.6975,10.1128125 L75.6975,9.37453125 L71.248125,9.37453125 L71.248125,10.1128125 L73.0003125,10.1128125 L73.0003125,14.7 L73.9108593,14.7 Z M79.1733281,14.7 C79.7836406,14.7 80.2692656,14.5392187 80.6302031,14.2176563 C80.9911406,13.8960938 81.1716093,13.4695312 81.1716093,12.9379687 C81.1716093,12.4096875 80.9960625,11.9913281 80.6449687,11.6828906 C80.293875,11.3744531 79.8164531,11.2169531 79.2127031,11.2103906 L79.2127031,11.2103906 L77.8296562,11.2103906 L77.8296562,9.37453125 L76.9191093,9.37453125 L76.9191093,14.7 L79.1733281,14.7 Z M79.1831718,13.9567969 L77.8296562,13.9567969 L77.8296562,11.9535937 L79.217625,11.9535937 C79.54575,11.9601563 79.8008671,12.0577734 79.9829765,12.2464453 C80.1650859,12.4351172 80.2561406,12.6771094 80.2561406,12.9724219 C80.2561406,13.2775781 80.162625,13.5179297 79.9755937,13.6934766 C79.7885625,13.8690234 79.5244218,13.9567969 79.1831718,13.9567969 L79.1831718,13.9567969 Z" id="Слушать" fill="#5F6368" fill-rule="nonzero"></path>
        <path d="M42.154185,28.5 C42.7415565,28.5 43.1960352,28.3783118 43.5176211,28.1349353 C43.839207,27.8915588 44,27.5403574 44,27.0813309 C44,26.7948244 43.9126285,26.5483672 43.7378855,26.3419593 C43.5631424,26.1355514 43.3318649,25.9969193 43.0440529,25.9260628 C43.3024963,25.82748 43.4977974,25.6849969 43.6299559,25.4986137 C43.7621145,25.3122304 43.8281938,25.103512 43.8281938,24.8724584 C43.8281938,24.4226741 43.6585903,24.0814849 43.3193833,23.8488909 C42.9801762,23.616297 42.4933921,23.5 41.8590308,23.5 L41.8590308,23.5 L40,23.5 L40,28.5 L42.154185,28.5 Z M41.8678414,25.6210721 L40.814978,25.6210721 L40.814978,24.1931608 L41.9295154,24.1931608 C42.6519824,24.2085644 43.0132159,24.4504005 43.0132159,24.9186691 C43.0132159,25.3869378 42.6314244,25.6210721 41.8678414,25.6210721 L41.8678414,25.6210721 Z M42.1629956,27.8114603 L40.814978,27.8114603 L40.814978,26.3049908 L42.1321586,26.3049908 C42.8311307,26.3049908 43.1806167,26.5545287 43.1806167,27.0536044 C43.1806167,27.2939002 43.0961821,27.4802834 42.9273128,27.6127542 C42.7584435,27.7452249 42.5036711,27.8114603 42.1629956,27.8114603 L42.1629956,27.8114603 Z" id="в" fill="#5F6368" fill-rule="nonzero"></path>
    </g>
</svg>